<?xml version="1.0" standalone="no"?>
<!DOCTYPE svg PUBLIC "-//W3C//DTD SVG 20010904//EN"
 "http://www.w3.org/TR/2001/REC-SVG-20010904/DTD/svg10.dtd">
<svg version="1.0" xmlns="http://www.w3.org/2000/svg"
 width="476.000000pt" height="463.000000pt" viewBox="0 0 476.000000 463.000000"
 preserveAspectRatio="xMidYMid meet">

<g transform="translate(0.000000,463.000000) scale(0.100000,-0.100000)"
fill="#000000" stroke="none">
<path d="M989 3206 c-17 -9 -23 -19 -21 -37 12 -80 12 -184 1 -210 -6 -16 -9
-32 -6 -35 11 -11 82 -15 97 -5 12 8 12 13 0 37 -10 18 -15 59 -16 118 0 122
-2 133 -18 139 -7 3 -24 0 -37 -7z"/>
<path d="M480 3195 c-111 -47 -107 -238 6 -275 70 -24 165 9 172 59 4 26 -4
26 -46 1 -42 -26 -77 -25 -102 0 -66 66 -39 174 42 172 23 -1 38 -9 51 -26 26
-36 57 -35 57 2 0 15 -8 37 -18 48 -23 29 -113 39 -162 19z"/>
<path d="M1607 3190 c-7 -29 19 -53 44 -40 20 11 23 19 13 44 -9 23 -51 20
-57 -4z"/>
<path d="M1449 3123 c-92 -5 -102 -18 -105 -131 -2 -48 -6 -97 -9 -109 -10
-40 26 -63 98 -63 66 0 98 14 118 51 8 16 7 26 -6 45 -8 13 -21 24 -28 24 -6
1 -25 7 -42 14 l-30 13 32 16 c22 12 33 27 38 49 4 18 14 41 22 50 17 19 11
49 -9 46 -7 -1 -43 -3 -79 -5z m-4 -64 c5 -13 2 -25 -6 -30 -17 -10 -29 -2
-29 20 0 35 25 42 35 10z m14 -178 c15 -10 7 -31 -12 -31 -7 0 -19 5 -27 10
-13 9 -13 11 0 20 18 12 21 12 39 1z"/>
<path d="M1608 3118 c-28 -10 -38 -41 -18 -53 14 -9 12 -91 -2 -115 -17 -26
-4 -35 47 -35 53 0 62 7 47 40 -7 14 -12 55 -12 90 0 73 -14 89 -62 73z"/>
<path d="M736 3096 c-21 -18 -29 -35 -33 -69 -5 -43 -3 -49 30 -82 30 -30 42
-35 80 -35 55 0 92 27 106 77 12 43 -5 92 -40 117 -35 24 -108 20 -143 -8z
m106 -51 c17 -38 0 -80 -32 -80 -18 0 -27 8 -34 27 -13 36 6 78 34 78 12 0 25
-10 32 -25z"/>
<path d="M1129 3091 c-23 -24 -29 -38 -29 -75 0 -62 30 -96 92 -103 41 -5 50
-2 73 21 32 32 25 48 -15 33 -36 -14 -65 -1 -65 29 0 16 9 20 53 22 57 3 71
17 53 50 -21 40 -42 52 -87 52 -37 0 -51 -6 -75 -29z"/>
<path d="M1751 3085 c-44 -50 -43 -95 4 -142 33 -33 39 -35 86 -31 70 7 102
39 102 103 0 36 -5 51 -28 75 -25 26 -36 30 -81 30 -47 0 -55 -3 -83 -35z
m107 -27 c7 -7 12 -26 12 -43 0 -34 -15 -55 -41 -55 -19 0 -29 20 -29 59 0 28
16 51 35 51 6 0 16 -5 23 -12z"/>
<path d="M362 2723 c-11 -10 -25 -34 -31 -53 -5 -19 -20 -64 -34 -100 -13 -36
-22 -70 -20 -77 2 -7 21 -17 40 -24 34 -11 38 -10 55 12 56 73 82 101 109 115
57 29 60 20 57 -244 l-3 -236 -31 -8 c-51 -13 -59 -89 -11 -102 38 -10 277 -7
298 4 13 8 19 21 19 45 0 30 -5 37 -37 52 l-38 18 -3 227 c-2 195 0 228 13
242 15 14 19 14 53 -4 20 -10 53 -42 72 -69 19 -28 41 -53 48 -56 16 -6 82 20
82 33 0 5 -12 40 -26 78 -14 38 -30 84 -35 102 -6 18 -21 39 -34 48 -21 14
-27 14 -60 0 -53 -22 -366 -23 -418 -1 -45 18 -41 19 -65 -2z"/>
<path d="M3230 2711 c-89 -27 -173 -99 -217 -184 -23 -44 -28 -68 -31 -154 -4
-97 -3 -106 25 -165 94 -199 323 -274 524 -172 54 27 159 129 159 154 0 16
-19 38 -47 54 -7 4 -34 -13 -63 -39 -118 -105 -221 -120 -312 -45 -61 50 -83
109 -83 220 0 89 2 98 30 140 89 132 243 114 339 -39 20 -30 33 -41 52 -41 35
0 64 17 64 38 0 25 -51 205 -63 220 -12 15 -51 16 -78 2 -14 -8 -31 -7 -64 5
-48 16 -190 19 -235 6z"/>
<path d="M1046 2684 c-10 -39 2 -62 39 -74 18 -6 36 -18 39 -26 3 -9 6 -116 6
-239 l0 -223 -35 -12 c-69 -23 -74 -93 -8 -104 50 -8 251 -6 283 3 46 13 39
85 -10 96 -40 9 -50 31 -50 107 0 74 15 104 48 94 12 -4 71 -72 132 -150 122
-161 114 -156 247 -153 97 2 124 18 107 64 -7 21 -20 30 -55 40 -37 11 -59 27
-110 85 -91 101 -94 105 -77 125 7 9 27 22 44 29 47 20 89 64 109 116 16 42
16 53 5 95 -17 59 -72 115 -135 137 -40 13 -94 16 -311 16 l-262 0 -6 -26z
m503 -118 c15 -14 21 -31 21 -61 0 -34 -5 -45 -31 -64 -36 -27 -156 -40 -201
-22 -27 10 -28 14 -28 79 0 41 5 73 13 81 8 9 40 12 108 9 78 -2 101 -7 118
-22z"/>
<path d="M1874 2686 c-10 -41 -1 -60 33 -70 18 -6 35 -16 37 -23 8 -19 10
-459 2 -471 -3 -6 -20 -13 -36 -17 -31 -7 -45 -34 -38 -71 5 -26 37 -32 184
-33 150 -1 167 5 162 59 -2 28 -9 37 -33 45 -16 5 -33 14 -37 20 -12 16 -9
444 2 466 6 10 19 19 29 19 27 0 43 24 39 62 l-3 33 -167 3 -167 2 -7 -24z"/>
<path d="M2310 2690 c-19 -36 -8 -64 29 -76 19 -6 38 -20 42 -30 9 -23 11
-389 3 -433 -5 -24 -15 -35 -39 -46 -60 -24 -59 -90 1 -101 55 -10 492 0 504
12 14 14 90 214 90 236 0 10 -14 21 -37 29 -41 13 -37 16 -101 -75 -22 -32
-46 -53 -78 -66 -51 -22 -124 -26 -142 -8 -15 15 -17 430 -2 457 5 10 23 21
40 25 30 5 31 8 28 48 l-3 43 -162 3 c-155 2 -163 2 -173 -18z"/>
<path d="M3772 2698 c-7 -7 -12 -25 -12 -41 0 -24 6 -31 40 -44 25 -10 42 -24
46 -37 2 -12 3 -117 2 -235 l-3 -215 -40 -20 c-35 -19 -40 -26 -40 -56 0 -28
5 -35 25 -41 32 -9 410 -11 517 -2 62 4 84 10 89 22 25 60 74 208 74 223 0 22
-47 43 -71 31 -10 -4 -33 -30 -52 -58 -50 -73 -115 -105 -216 -105 -47 0 -82
5 -89 12 -7 7 -12 44 -12 95 0 80 1 83 25 89 44 11 70 -3 91 -48 14 -31 26
-44 43 -46 42 -6 51 20 51 154 0 133 -6 148 -56 142 -21 -2 -30 -10 -35 -32
-11 -40 -38 -66 -69 -66 -40 0 -50 17 -50 92 0 65 1 69 28 79 19 8 53 8 112 1
l85 -10 57 -63 57 -63 36 17 c19 9 35 20 35 24 0 23 -58 184 -72 200 -15 18
-578 19 -596 1z"/>
</g>
</svg>
